<svg xmlns="http://www.w3.org/2000/svg" width="18" height="20" viewBox="0 0 18 20">
  <g fill="#FEFFFE">
    <path d="M13,5 L5,5 C2.23857625,5 0,7.23857625 0,10 L0,15 C0,17.7614237 2.23857625,20 5,20 L13,20 C15.7614237,20 18,17.7614237 18,15 L18,10 C18,7.23857625 15.7614237,5 13,5 Z M5,7 L13,7 C14.6568542,7 16,8.34314575 16,10 L16,15 C16,16.6568542 14.6568542,18 13,18 L5,18 C3.34314575,18 2,16.6568542 2,15 L2,10 C2,8.34314575 3.34314575,7 5,7 Z"/>
    <path d="M9 8.5C7.61928813 8.5 6.5 9.61928813 6.5 11L6.50670514 11.1838708C6.55119988 11.7923217 6.81507606 12.3531203 7.23648758 12.7722575L7.321 12.851 6.26134421 15.5 11.7386558 15.5 10.678 12.851 10.7635124 12.7722575C11.2270651 12.3112066 11.5 11.6787454 11.5 11 11.5 9.61928813 10.3807119 8.5 9 8.5zM9 9.5C9.82842712 9.5 10.5 10.1715729 10.5 11 10.5 11.5187964 10.2350511 11.9915621 9.80544338 12.2657071L9.45633004 12.4884862 10.261 14.5 7.738 14.5 8.54366996 12.4884862 8.19455662 12.2657071C7.76494886 11.9915621 7.5 11.5187964 7.5 11 7.5 10.1715729 8.17157288 9.5 9 9.5zM9 0C11.1421954 0 12.8910789 1.68396847 12.9951047 3.80035966L13 4 13 6 11 6 11 4C11 2.8954305 10.1045695 2 9 2 7.9456382 2 7.08183488 2.81587779 7.00548574 3.85073766L7 4 7 6 5 6 5 4C5 1.790861 6.790861 0 9 0z"/>
  </g>
</svg>
