<?xml version="1.0" encoding="utf-8"?>
<!-- Generator: Adobe Illustrator 21.0.0, SVG Export Plug-In . SVG Version: 6.00 Build 0)  -->
<svg version="1.1" id="Слой_1" xmlns="http://www.w3.org/2000/svg" xmlns:xlink="http://www.w3.org/1999/xlink" x="0px" y="0px"
	 viewBox="0 0 18 17" style="enable-background:new 0 0 18 17;" xml:space="preserve">
<style type="text/css">
	.st0{fill:#FFFFFF;}
</style>
<path class="st0" d="M18,17h-2c0-3.9-3.1-7-7-7c-3.9,0-7,3.1-7,7H0c0-5,4-9,9-9C14,8,18,12,18,17z"/>
<path class="st0" d="M9,10c-2.8,0-5-2.2-5-5s2.2-5,5-5s5,2.2,5,5S11.8,10,9,10z M9,2C7.3,2,6,3.3,6,5s1.3,3,3,3s3-1.3,3-3
	S10.7,2,9,2z"/>
</svg>
